<svg width="9.281219" height="17.999939" viewBox="0 0 9.28122 17.9999" fill="none" xmlns="http://www.w3.org/2000/svg" xmlns:xlink="http://www.w3.org/1999/xlink">
	<desc>
			Created with Pixso.
	</desc>
	<defs/>
	<g style="mix-blend-mode:normal">
		<path id="facebook-f" d="M2.7 17.99L2.7 9.94L0 9.94L0 6.74L2.7 6.74L2.7 4.21C2.7 2.88 3.08 1.84 3.83 1.1C4.58 0.36 5.57 0 6.82 0C7.82 0 8.64 0.04 9.28 0.14L9.28 2.98L7.59 2.98C6.96 2.98 6.52 3.12 6.29 3.41C6.1 3.64 6.01 4.01 6.01 4.53L6.01 6.74L8.99 6.74L8.57 9.94L6.01 9.94L6.01 17.99L2.7 17.99Z" fill="#FFFFFF" fill-opacity="1.000000" fill-rule="nonzero"/>
	</g>
</svg>
