<svg width="18.000000" height="18.000000" viewBox="0 0 18 18" fill="none" xmlns="http://www.w3.org/2000/svg" xmlns:xlink="http://www.w3.org/1999/xlink">
	<desc>
			Created with Pixso.
	</desc>
	<defs/>
	<g style="mix-blend-mode:normal">
		<path id="twitter instagram" d="M17.9598 5.26343C17.9866 6.01343 18 7.25903 18 9C18 10.741 17.9799 11.9934 17.9397 12.7566C17.8995 13.52 17.7858 14.1831 17.5983 14.7456C17.3572 15.4153 16.9889 15.9978 16.4933 16.4934C15.9978 16.9888 15.4152 17.3572 14.7455 17.5981C14.183 17.7856 13.5201 17.8997 12.7567 17.9397C11.9933 17.98 10.7411 18 9 18C7.25891 18 6.00671 17.98 5.24329 17.9397C4.47986 17.8997 3.81702 17.7722 3.25452 17.5581C2.58484 17.3438 2.0022 16.9888 1.50671 16.4934C1.01111 15.9978 0.642822 15.4153 0.401733 14.7456C0.214233 14.1831 0.100464 13.52 0.0603027 12.7566C0.0201416 11.9934 0 10.741 0 9C0 7.25903 0.0201416 6.00659 0.0603027 5.24341C0.100464 4.47998 0.214233 3.81689 0.401733 3.25439C0.642822 2.58472 1.01111 2.0022 1.50671 1.50659C2.0022 1.01123 2.58484 0.642822 3.25452 0.401855C3.81702 0.214355 4.47986 0.100342 5.24329 0.0603027C6.00671 0.0200195 7.25891 0 9 0C10.7411 0 11.9933 0.0200195 12.7567 0.0603027C13.5201 0.100342 14.183 0.214355 14.7455 0.401855C15.4152 0.642822 15.9978 1.01123 16.4933 1.50659C16.9889 2.0022 17.3572 2.58472 17.5983 3.25439C17.7858 3.81689 17.9062 4.48657 17.9598 5.26343ZM16.3527 12.134C16.2992 13.125 16.192 13.8481 16.0312 14.3037C15.7098 15.1072 15.1339 15.6831 14.3036 16.0312C13.875 16.1919 13.1519 16.2991 12.1339 16.3528C11.5714 16.3794 10.7411 16.3928 9.64294 16.3928L8.35718 16.3928C7.28577 16.3928 6.45544 16.3794 5.86609 16.3528C4.875 16.2991 4.15186 16.1919 3.69641 16.0312C2.89294 15.71 2.31702 15.134 1.96875 14.3037C1.80811 13.8481 1.70093 13.125 1.64734 12.134C1.62061 11.5447 1.60718 10.7144 1.60718 9.64282L1.60718 8.35718C1.60718 7.28564 1.62061 6.45532 1.64734 5.86621C1.70093 4.84814 1.80811 4.125 1.96875 3.69653C2.29016 2.86621 2.86609 2.29028 3.69641 1.96875C4.15186 1.80811 4.875 1.70093 5.86609 1.64746C6.45544 1.62061 7.28577 1.60718 8.35718 1.60718L9.64294 1.60718C10.7143 1.60718 11.5446 1.62061 12.1339 1.64746C13.1519 1.70093 13.875 1.80811 14.3036 1.96875C15.1339 2.29028 15.7098 2.86621 16.0312 3.69653C16.192 4.125 16.2992 4.84814 16.3527 5.86621C16.3795 6.42871 16.3929 7.25903 16.3929 8.35718L16.3929 9.64282C16.3929 10.7144 16.3795 11.5447 16.3527 12.134ZM14.5647 4.94189C14.7656 4.72778 14.8794 4.47314 14.9062 4.17847C14.9062 3.88403 14.7991 3.62939 14.5848 3.41528C14.3705 3.20093 14.1161 3.09375 13.8214 3.09375C13.5267 3.09375 13.2723 3.20093 13.058 3.41528C12.8438 3.62939 12.7366 3.88403 12.7366 4.17847C12.7366 4.47314 12.8438 4.72778 13.058 4.94189C13.2723 5.15625 13.5267 5.26343 13.8214 5.26343C14.1161 5.26343 14.3638 5.15625 14.5647 4.94189ZM11.3103 5.0022C10.6005 4.58691 9.83044 4.37939 9 4.37939C8.16968 4.37939 7.39966 4.58691 6.68982 5.0022C6.33524 5.20956 6.01746 5.45361 5.73645 5.73438L5.73242 5.73828C5.45248 6.01889 5.20911 6.33603 5.00232 6.6897C4.58716 7.39941 4.37952 8.16968 4.37952 9C4.37952 9.83032 4.58716 10.6003 5.00232 11.3103C5.19186 11.6342 5.41272 11.9281 5.66492 12.1921C5.68445 12.2126 5.70414 12.2329 5.724 12.2529L5.73462 12.2637C6.01611 12.5453 6.33451 12.7899 6.68982 12.9978C7.39966 13.4128 8.16968 13.6204 9 13.6204C9.83044 13.6204 10.6005 13.4128 11.3103 12.9978C11.6384 12.8061 11.936 12.5817 12.2031 12.3247L12.2097 12.3184L12.2645 12.2646C12.5458 11.9834 12.7902 11.6653 12.9978 11.3103C13.413 10.6003 13.6206 9.83032 13.6206 9C13.6206 8.16968 13.413 7.39941 12.9978 6.6897C12.7898 6.33389 12.5448 6.01523 12.2627 5.73364L12.26 5.73096C11.9799 5.45151 11.6633 5.20859 11.3103 5.0022ZM9 12.0134C9.83032 12.0134 10.5402 11.7188 11.1294 11.1294C11.7188 10.54 12.0133 9.83032 12.0133 9C12.0133 8.16968 11.7188 7.45972 11.1294 6.87061C10.5402 6.28125 9.83032 5.98657 9 5.98657C8.16956 5.98657 7.45984 6.28125 6.87048 6.87061C6.28125 7.45972 5.98657 8.16968 5.98657 9C5.98657 9.83032 6.28125 10.54 6.87048 11.1294C7.45984 11.7188 8.16956 12.0134 9 12.0134Z" clip-rule="evenodd" fill="#FFFFFF" fill-opacity="1.000000" fill-rule="evenodd"/>
	</g>
</svg>
