<svg width="22.153847" height="18.000000" viewBox="0 0 22.1538 18" fill="none" xmlns="http://www.w3.org/2000/svg" xmlns:xlink="http://www.w3.org/1999/xlink">
	<desc>
			Created with Pixso.
	</desc>
	<defs/>
	<g style="mix-blend-mode:normal">
		<path id="Path" d="M19.86 4.5C19.88 4.61 19.9 4.8 19.9 5.06C19.9 7.13 19.39 9.14 18.38 11.07C17.35 13.12 15.89 14.75 14.01 15.96C11.97 17.32 9.62 18 6.96 18C4.42 18 2.1 17.32 0 15.96C0.31 15.99 0.67 16 1.08 16C3.18 16 5.07 15.36 6.75 14.06C5.74 14.06 4.85 13.76 4.08 13.17C3.32 12.58 2.79 11.84 2.5 10.94C2.79 10.97 3.07 10.99 3.33 10.99C3.73 10.99 4.13 10.94 4.54 10.86C3.5 10.62 2.63 10.09 1.94 9.25C1.25 8.42 0.9 7.47 0.9 6.4C1.54 6.77 2.22 6.89 2.94 6.92C2.33 6.49 1.84 5.94 1.47 5.27C1.09 4.61 0.9 3.88 0.9 3.09C0.9 2.3 1.12 1.54 1.55 0.82C2.68 2.23 4.06 3.36 5.68 4.19C7.31 5.03 9.05 5.49 10.9 5.58C10.84 5.23 10.81 4.88 10.81 4.54C10.81 3.73 11.01 2.97 11.42 2.27C11.82 1.56 12.37 1 13.06 0.6C13.75 0.2 14.5 0 15.31 0C15.98 0 16.59 0.12 17.15 0.38C17.71 0.64 18.21 0.99 18.64 1.42C19.68 1.22 20.65 0.86 21.54 0.34C21.2 1.41 20.53 2.25 19.55 2.85C20.42 2.74 21.28 2.49 22.15 2.12C21.51 3.04 20.75 3.83 19.86 4.5Z" fill="#FFFFFF" fill-opacity="1.000000" fill-rule="nonzero"/>
	</g>
</svg>
